<svg width="355" height="39" viewBox="0 0 355 39" fill="none" xmlns="http://www.w3.org/2000/svg">
<path d="M17.46 13.404H24.948C24.948 12.052 24.844 10.6133 24.636 9.088C24.4627 7.528 23.9947 6.08933 23.232 4.772C22.4693 3.42 21.308 2.31067 19.748 1.444C18.2227 0.577332 16.1253 0.143998 13.456 0.143998C10.648 0.143998 8.412 0.629331 6.748 1.6C5.084 2.536 3.80133 3.85333 2.9 5.552C2.03333 7.25066 1.46133 9.296 1.184 11.688C0.941333 14.0453 0.82 16.628 0.82 19.436C0.82 22.2787 0.941333 24.8787 1.184 27.236C1.46133 29.5933 2.03333 31.6213 2.9 33.32C3.80133 35.0187 5.084 36.3187 6.748 37.22C8.412 38.1213 10.648 38.572 13.456 38.572C15.9173 38.572 17.9107 38.1907 19.436 37.428C20.996 36.6653 22.192 35.608 23.024 34.256C23.8907 32.904 24.48 31.3267 24.792 29.524C25.104 27.7213 25.26 25.8147 25.26 23.804H17.772C17.772 25.8147 17.6507 27.444 17.408 28.692C17.1653 29.9053 16.836 30.8587 16.42 31.552C16.004 32.2107 15.5013 32.6613 14.912 32.904C14.3573 33.112 13.7507 33.216 13.092 33.216C12.2947 33.216 11.584 33.06 10.96 32.748C10.3707 32.4013 9.868 31.76 9.452 30.824C9.07067 29.8533 8.776 28.5013 8.568 26.768C8.39467 25.0347 8.308 22.764 8.308 19.956C8.308 17.3213 8.37733 15.1027 8.516 13.3C8.65467 11.4627 8.89733 9.98933 9.244 8.88C9.59067 7.736 10.0587 6.92133 10.648 6.436C11.272 5.916 12.052 5.656 12.988 5.656C14.6867 5.656 15.848 6.28 16.472 7.528C17.1307 8.74133 17.46 10.7 17.46 13.404ZM29.8937 38H37.3817V0.871998H29.8937V38ZM51.5679 0.871998H42.9359V38H49.7999V12H49.9039L59.0559 38H67.5839V0.871998H60.7199V26.3H60.6159L51.5679 0.871998ZM93.5433 0.871998H72.7953V38H94.0633V31.864H80.2833V21.88H92.7633V15.744H80.2833V7.008H93.5433V0.871998ZM97.9865 0.871998V38H104.85V8.36H104.954L111.558 38H117.382L123.986 8.36H124.09V38H130.954V0.871998H119.878L114.522 27.08H114.418L109.114 0.871998H97.9865ZM151.819 24.012L148.231 7.32H148.127L144.539 24.012H151.819ZM152.807 0.871998L162.635 38H154.835L153.119 30.148H143.239L141.523 38H133.723L143.551 0.871998H152.807ZM177.709 38H198.457V31.864H185.197V0.871998H177.709V38ZM202.144 38H209.632V0.871998H202.144V38ZM222.674 32.488V21.308H225.898C226.73 21.308 227.493 21.3947 228.186 21.568C228.879 21.7413 229.469 22.0533 229.954 22.504C230.474 22.92 230.873 23.492 231.15 24.22C231.462 24.9133 231.618 25.7973 231.618 26.872C231.618 29.0213 231.063 30.4947 229.954 31.292C228.845 32.0893 227.389 32.488 225.586 32.488H222.674ZM222.674 16.108V6.384H225.378C227.25 6.384 228.619 6.748 229.486 7.476C230.353 8.204 230.786 9.452 230.786 11.22C230.786 12.988 230.301 14.2533 229.33 15.016C228.394 15.744 226.886 16.108 224.806 16.108H222.674ZM215.186 0.871998V38H227.822C230.006 38 231.826 37.7053 233.282 37.116C234.773 36.5267 235.969 35.7467 236.87 34.776C237.806 33.7707 238.465 32.6093 238.846 31.292C239.227 29.9747 239.418 28.588 239.418 27.132C239.418 24.636 238.811 22.6427 237.598 21.152C236.385 19.6613 234.738 18.7773 232.658 18.5V18.396C234.53 17.876 235.934 16.9053 236.87 15.484C237.806 14.028 238.274 12.2947 238.274 10.284C238.274 8.516 238.014 7.02533 237.494 5.812C236.974 4.59866 236.246 3.628 235.31 2.9C234.374 2.172 233.247 1.652 231.93 1.34C230.647 1.028 229.243 0.871998 227.718 0.871998H215.186ZM244.08 0.871998V38H251.568V22.296H255.572C257.132 22.296 258.242 22.712 258.9 23.544C259.559 24.376 259.923 25.52 259.992 26.976L260.2 34.1C260.235 34.828 260.304 35.5387 260.408 36.232C260.512 36.8907 260.755 37.48 261.136 38H269.248V37.688C268.555 37.3067 268.104 36.596 267.896 35.556C267.758 34.516 267.654 33.008 267.584 31.032C267.55 30.0267 267.515 29.1253 267.48 28.328C267.446 27.496 267.394 26.7333 267.324 26.04C267.116 23.96 266.579 22.452 265.712 21.516C264.846 20.58 263.476 19.9733 261.604 19.696V19.592C263.719 19.1413 265.279 18.136 266.284 16.576C267.29 14.9813 267.792 12.936 267.792 10.44C267.792 7.216 266.926 4.824 265.192 3.264C263.459 1.66933 261.032 0.871998 257.912 0.871998H244.08ZM251.568 17.096V6.384H255.104C258.571 6.384 260.304 8.1 260.304 11.532C260.304 13.5427 259.819 14.9813 258.848 15.848C257.878 16.68 256.491 17.096 254.688 17.096H251.568ZM288.471 24.012L284.883 7.32H284.779L281.191 24.012H288.471ZM289.459 0.871998L299.287 38H291.487L289.771 30.148H279.891L278.175 38H270.375L280.203 0.871998H289.459ZM301.87 0.871998V38H309.358V22.296H313.362C314.922 22.296 316.031 22.712 316.69 23.544C317.348 24.376 317.712 25.52 317.782 26.976L317.99 34.1C318.024 34.828 318.094 35.5387 318.198 36.232C318.302 36.8907 318.544 37.48 318.926 38H327.038V37.688C326.344 37.3067 325.894 36.596 325.686 35.556C325.547 34.516 325.443 33.008 325.374 31.032C325.339 30.0267 325.304 29.1253 325.27 28.328C325.235 27.496 325.183 26.7333 325.114 26.04C324.906 23.96 324.368 22.452 323.502 21.516C322.635 20.58 321.266 19.9733 319.394 19.696V19.592C321.508 19.1413 323.068 18.136 324.074 16.576C325.079 14.9813 325.582 12.936 325.582 10.44C325.582 7.216 324.715 4.824 322.982 3.264C321.248 1.66933 318.822 0.871998 315.702 0.871998H301.87ZM309.358 17.096V6.384H312.894C316.36 6.384 318.094 8.1 318.094 11.532C318.094 13.5427 317.608 14.9813 316.638 15.848C315.667 16.68 314.28 17.096 312.478 17.096H309.358ZM335.83 0.871998H327.406L337.026 23.388V38H344.514V23.388L354.134 0.871998H346.022L340.822 15.224H340.718L335.83 0.871998Z" fill="#F58F29"/>
</svg>
